<?xml version="1.0" encoding="UTF-8" standalone="no"?>
<!DOCTYPE svg PUBLIC "-//W3C//DTD SVG 1.1//EN"
 "http://www.w3.org/Graphics/SVG/1.1/DTD/svg11.dtd">
<!-- Generated by graphviz version 2.40.1 (20161225.0304)
 -->
<!-- Title: Types Pages: 1 -->
<svg width="752pt" height="296pt"
 viewBox="0.00 0.00 752.00 296.00" xmlns="http://www.w3.org/2000/svg" xmlns:xlink="http://www.w3.org/1999/xlink">
<g id="graph0" class="graph" transform="scale(1 1) rotate(0) translate(4 292)">
<title>Types</title>
<polygon fill="#ffffff" stroke="transparent" points="-4,4 -4,-292 748,-292 748,4 -4,4"/>
<!-- types -->
<g id="node1" class="node">
<title>types</title>
<path fill="#d3d3d3" stroke="#000000" stroke-width="2" d="M472,-288C472,-288 402,-288 402,-288 396,-288 390,-282 390,-276 390,-276 390,-264 390,-264 390,-258 396,-252 402,-252 402,-252 472,-252 472,-252 478,-252 484,-258 484,-264 484,-264 484,-276 484,-276 484,-282 478,-288 472,-288"/>
<text text-anchor="middle" x="437" y="-266.8493" font-family="Arial" font-size="14.00" fill="#000000">Data Types</text>
</g>
<!-- p0 -->
<!-- types&#45;&gt;p0 -->
<g id="edge1" class="edge">
<title>types&#45;&gt;p0</title>
<path fill="none" stroke="#000000" d="M437,-241.4003C437,-228.9674 437,-216.9885 437,-216.058"/>
<polygon fill="#000000" stroke="#000000" points="433.5001,-241.718 437,-251.7181 440.5001,-241.7181 433.5001,-241.718"/>
</g>
<!-- Scalar -->
<g id="node6" class="node">
<title>Scalar</title>
<path fill="#d3d3d3" stroke="#000000" stroke-width="2" d="M342,-180C342,-180 272,-180 272,-180 266,-180 260,-174 260,-168 260,-168 260,-156 260,-156 260,-150 266,-144 272,-144 272,-144 342,-144 342,-144 348,-144 354,-150 354,-156 354,-156 354,-168 354,-168 354,-174 348,-180 342,-180"/>
<text text-anchor="middle" x="307" y="-158.8493" font-family="Arial" font-size="14.00" fill="#000000">Scalar</text>
</g>
<!-- p0&#45;&gt;Scalar -->
<g id="edge2" class="edge">
<title>p0&#45;&gt;Scalar</title>
<path fill="none" stroke="#000000" d="M436.9058,-215.9609C434.5223,-214.9708 387.4026,-195.398 350.5932,-180.1079"/>
</g>
<!-- Special -->
<g id="node7" class="node">
<title>Special</title>
<path fill="#d3d3d3" stroke="#000000" stroke-width="2" d="M472,-180C472,-180 402,-180 402,-180 396,-180 390,-174 390,-168 390,-168 390,-156 390,-156 390,-150 396,-144 402,-144 402,-144 472,-144 472,-144 478,-144 484,-150 484,-156 484,-156 484,-168 484,-168 484,-174 478,-180 472,-180"/>
<text text-anchor="middle" x="437" y="-158.8493" font-family="Arial" font-size="14.00" fill="#000000">Special</text>
</g>
<!-- p0&#45;&gt;Special -->
<g id="edge3" class="edge">
<title>p0&#45;&gt;Special</title>
<path fill="none" stroke="#000000" d="M437,-215.8451C437,-213.9521 437,-195.0887 437,-180.2161"/>
</g>
<!-- Compound -->
<g id="node8" class="node">
<title>Compound</title>
<path fill="#d3d3d3" stroke="#000000" stroke-width="2" d="M602,-180C602,-180 532,-180 532,-180 526,-180 520,-174 520,-168 520,-168 520,-156 520,-156 520,-150 526,-144 532,-144 532,-144 602,-144 602,-144 608,-144 614,-150 614,-156 614,-156 614,-168 614,-168 614,-174 608,-180 602,-180"/>
<text text-anchor="middle" x="567" y="-158.8493" font-family="Arial" font-size="14.00" fill="#000000">Compound</text>
</g>
<!-- p0&#45;&gt;Compound -->
<g id="edge4" class="edge">
<title>p0&#45;&gt;Compound</title>
<path fill="none" stroke="#000000" d="M437.0942,-215.9609C439.4777,-214.9708 486.5974,-195.398 523.4068,-180.1079"/>
</g>
<!-- p1 -->
<!-- Integer -->
<g id="node10" class="node">
<title>Integer</title>
<path fill="#d3d3d3" stroke="#000000" stroke-width="2" d="M82,-36C82,-36 12,-36 12,-36 6,-36 0,-30 0,-24 0,-24 0,-12 0,-12 0,-6 6,0 12,0 12,0 82,0 82,0 88,0 94,-6 94,-12 94,-12 94,-24 94,-24 94,-30 88,-36 82,-36"/>
<text text-anchor="middle" x="47" y="-14.8493" font-family="Arial" font-size="14.00" fill="#000000">Integer</text>
</g>
<!-- p1&#45;&gt;Integer -->
<g id="edge7" class="edge">
<title>p1&#45;&gt;Integer</title>
<path fill="none" stroke="#000000" d="M306.9526,-89.9869C304.0469,-89.1822 168.1364,-51.5455 94.0276,-31.023"/>
</g>
<!-- Boolean -->
<g id="node11" class="node">
<title>Boolean</title>
<path fill="#d3d3d3" stroke="#000000" stroke-width="2" d="M212,-36C212,-36 142,-36 142,-36 136,-36 130,-30 130,-24 130,-24 130,-12 130,-12 130,-6 136,0 142,0 142,0 212,0 212,0 218,0 224,-6 224,-12 224,-12 224,-24 224,-24 224,-30 218,-36 212,-36"/>
<text text-anchor="middle" x="177" y="-14.8493" font-family="Arial" font-size="14.00" fill="#000000">Boolean</text>
</g>
<!-- p1&#45;&gt;Boolean -->
<g id="edge8" class="edge">
<title>p1&#45;&gt;Boolean</title>
<path fill="none" stroke="#000000" d="M306.9058,-89.9478C304.2763,-88.4915 247.198,-56.8789 209.5843,-36.0467"/>
</g>
<!-- Float -->
<g id="node12" class="node">
<title>Float</title>
<path fill="#d3d3d3" stroke="#000000" stroke-width="2" d="M342,-36C342,-36 272,-36 272,-36 266,-36 260,-30 260,-24 260,-24 260,-12 260,-12 260,-6 266,0 272,0 272,0 342,0 342,0 348,0 354,-6 354,-12 354,-12 354,-24 354,-24 354,-30 348,-36 342,-36"/>
<text text-anchor="middle" x="307" y="-14.8493" font-family="Arial" font-size="14.00" fill="#000000">Float</text>
</g>
<!-- p1&#45;&gt;Float -->
<g id="edge9" class="edge">
<title>p1&#45;&gt;Float</title>
<path fill="none" stroke="#000000" d="M307,-89.9478C307,-88.4915 307,-56.8789 307,-36.0467"/>
</g>
<!-- String -->
<g id="node13" class="node">
<title>String</title>
<path fill="#d3d3d3" stroke="#000000" stroke-width="2" d="M472,-36C472,-36 402,-36 402,-36 396,-36 390,-30 390,-24 390,-24 390,-12 390,-12 390,-6 396,0 402,0 402,0 472,0 472,0 478,0 484,-6 484,-12 484,-12 484,-24 484,-24 484,-30 478,-36 472,-36"/>
<text text-anchor="middle" x="437" y="-14.8493" font-family="Arial" font-size="14.00" fill="#000000">String</text>
</g>
<!-- p1&#45;&gt;String -->
<g id="edge10" class="edge">
<title>p1&#45;&gt;String</title>
<path fill="none" stroke="#000000" d="M307.0942,-89.9478C309.7237,-88.4915 366.802,-56.8789 404.4157,-36.0467"/>
</g>
<!-- p2 -->
<!-- p3 -->
<!-- Array -->
<g id="node14" class="node">
<title>Array</title>
<path fill="#d3d3d3" stroke="#000000" stroke-width="2" d="M602,-36C602,-36 532,-36 532,-36 526,-36 520,-30 520,-24 520,-24 520,-12 520,-12 520,-6 526,0 532,0 532,0 602,0 602,0 608,0 614,-6 614,-12 614,-12 614,-24 614,-24 614,-30 608,-36 602,-36"/>
<text text-anchor="middle" x="567" y="-14.8493" font-family="Arial" font-size="14.00" fill="#000000">Array</text>
</g>
<!-- p3&#45;&gt;Array -->
<g id="edge12" class="edge">
<title>p3&#45;&gt;Array</title>
<path fill="none" stroke="#000000" d="M567,-89.9478C567,-88.4915 567,-56.8789 567,-36.0467"/>
</g>
<!-- Object -->
<g id="node15" class="node">
<title>Object</title>
<path fill="#d3d3d3" stroke="#000000" stroke-width="2" d="M732,-36C732,-36 662,-36 662,-36 656,-36 650,-30 650,-24 650,-24 650,-12 650,-12 650,-6 656,0 662,0 662,0 732,0 732,0 738,0 744,-6 744,-12 744,-12 744,-24 744,-24 744,-30 738,-36 732,-36"/>
<text text-anchor="middle" x="697" y="-14.8493" font-family="Arial" font-size="14.00" fill="#000000">Object</text>
</g>
<!-- p3&#45;&gt;Object -->
<g id="edge13" class="edge">
<title>p3&#45;&gt;Object</title>
<path fill="none" stroke="#000000" d="M567.0942,-89.9478C569.7237,-88.4915 626.802,-56.8789 664.4157,-36.0467"/>
</g>
<!-- Scalar&#45;&gt;p1 -->
<g id="edge6" class="edge">
<title>Scalar&#45;&gt;p1</title>
<path fill="none" stroke="#000000" d="M307,-133.7981C307,-114.3563 307,-91.727 307,-90.0939"/>
<polygon fill="#000000" stroke="#000000" points="303.5001,-133.8313 307,-143.8314 310.5001,-133.8314 303.5001,-133.8313"/>
</g>
<!-- Null -->
<g id="node9" class="node">
<title>Null</title>
<path fill="#d3d3d3" stroke="#000000" stroke-width="2" d="M472,-108C472,-108 402,-108 402,-108 396,-108 390,-102 390,-96 390,-96 390,-84 390,-84 390,-78 396,-72 402,-72 402,-72 472,-72 472,-72 478,-72 484,-78 484,-84 484,-84 484,-96 484,-96 484,-102 478,-108 472,-108"/>
<text text-anchor="middle" x="437" y="-86.8493" font-family="Arial" font-size="14.00" fill="#000000">Null</text>
</g>
<!-- Special&#45;&gt;Null -->
<g id="edge5" class="edge">
<title>Special&#45;&gt;Null</title>
<path fill="none" stroke="#000000" d="M437,-133.5726C437,-125.1084 437,-116.0593 437,-108.4133"/>
<polygon fill="#000000" stroke="#000000" points="433.5001,-133.8313 437,-143.8314 440.5001,-133.8314 433.5001,-133.8313"/>
</g>
<!-- Compound&#45;&gt;p3 -->
<g id="edge11" class="edge">
<title>Compound&#45;&gt;p3</title>
<path fill="none" stroke="#000000" d="M567,-133.7981C567,-114.3563 567,-91.727 567,-90.0939"/>
<polygon fill="#000000" stroke="#000000" points="563.5001,-133.8313 567,-143.8314 570.5001,-133.8314 563.5001,-133.8313"/>
</g>
</g>
</svg>
