<?xml version="1.0" encoding="UTF-8" standalone="no"?>
<!DOCTYPE svg PUBLIC "-//W3C//DTD SVG 1.1//EN"
 "http://www.w3.org/Graphics/SVG/1.1/DTD/svg11.dtd">
<!-- Generated by graphviz version 2.40.1 (20161225.0304)
 -->
<!-- Title: MIB Pages: 1 -->
<svg width="1454pt" height="548pt"
 viewBox="0.00 0.00 1454.21 548.00" xmlns="http://www.w3.org/2000/svg" xmlns:xlink="http://www.w3.org/1999/xlink">
<g id="graph0" class="graph" transform="scale(1 1) rotate(0) translate(4 544)">
<title>MIB</title>
<polygon fill="#ffffff" stroke="transparent" points="-4,4 -4,-544 1450.2109,-544 1450.2109,4 -4,4"/>
<!-- n1 -->
<g id="node1" class="node">
<title>n1</title>
<polygon fill="none" stroke="#000000" points="761,-540 617,-540 617,-504 761,-504 761,-540"/>
<text text-anchor="middle" x="689" y="-517.8" font-family="Courier,monospace" font-size="14.00" fill="#000000">iso(1)</text>
</g>
<!-- n13 -->
<g id="node2" class="node">
<title>n13</title>
<polygon fill="none" stroke="#000000" points="806.436,-468 571.564,-468 571.564,-432 806.436,-432 806.436,-468"/>
<text text-anchor="middle" x="689" y="-445.8" font-family="Courier,monospace" font-size="14.00" fill="#000000">identified&#45;organization(3)</text>
</g>
<!-- n1&#45;&#45;n13 -->
<g id="edge1" class="edge">
<title>n1&#45;&#45;n13</title>
<path fill="none" stroke="#000000" d="M689,-503.8314C689,-493 689,-479.2876 689,-468.4133"/>
</g>
<!-- n136 -->
<g id="node3" class="node">
<title>n136</title>
<polygon fill="none" stroke="#000000" points="761,-396 617,-396 617,-360 761,-360 761,-396"/>
<text text-anchor="middle" x="689" y="-373.8" font-family="Courier,monospace" font-size="14.00" fill="#000000">dod(6)</text>
</g>
<!-- n13&#45;&#45;n136 -->
<g id="edge2" class="edge">
<title>n13&#45;&#45;n136</title>
<path fill="none" stroke="#000000" d="M689,-431.8314C689,-421 689,-407.2876 689,-396.4133"/>
</g>
<!-- n1361 -->
<g id="node4" class="node">
<title>n1361</title>
<polygon fill="none" stroke="#000000" points="761,-324 617,-324 617,-288 761,-288 761,-324"/>
<text text-anchor="middle" x="689" y="-301.8" font-family="Courier,monospace" font-size="14.00" fill="#000000">internet(1)</text>
</g>
<!-- n136&#45;&#45;n1361 -->
<g id="edge3" class="edge">
<title>n136&#45;&#45;n1361</title>
<path fill="none" stroke="#000000" d="M689,-359.8314C689,-349 689,-335.2876 689,-324.4133"/>
</g>
<!-- n13611 -->
<g id="node5" class="node">
<title>n13611</title>
<polygon fill="none" stroke="#000000" points="518,-252 374,-252 374,-216 518,-216 518,-252"/>
<text text-anchor="middle" x="446" y="-229.8" font-family="Courier,monospace" font-size="14.00" fill="#000000">directory(1)</text>
</g>
<!-- n1361&#45;&#45;n13611 -->
<g id="edge4" class="edge">
<title>n1361&#45;&#45;n13611</title>
<path fill="none" stroke="#000000" d="M627.9945,-287.9243C591.0197,-276.9688 544.0099,-263.04 507.0306,-252.0831"/>
</g>
<!-- n13612 -->
<g id="node6" class="node">
<title>n13612</title>
<polygon fill="none" stroke="#000000" points="680,-252 536,-252 536,-216 680,-216 680,-252"/>
<text text-anchor="middle" x="608" y="-229.8" font-family="Courier,monospace" font-size="14.00" fill="#000000">mgmt(2)</text>
</g>
<!-- n1361&#45;&#45;n13612 -->
<g id="edge5" class="edge">
<title>n1361&#45;&#45;n13612</title>
<path fill="none" stroke="#000000" d="M668.5603,-287.8314C656.2813,-276.9167 640.711,-263.0764 628.4332,-252.1628"/>
</g>
<!-- n13613 -->
<g id="node16" class="node">
<title>n13613</title>
<polygon fill="none" stroke="#000000" points="842,-252 698,-252 698,-216 842,-216 842,-252"/>
<text text-anchor="middle" x="770" y="-229.8" font-family="Courier,monospace" font-size="14.00" fill="#000000">experimental(3)</text>
</g>
<!-- n1361&#45;&#45;n13613 -->
<g id="edge6" class="edge">
<title>n1361&#45;&#45;n13613</title>
<path fill="none" stroke="#000000" d="M709.4397,-287.8314C721.7187,-276.9167 737.289,-263.0764 749.5668,-252.1628"/>
</g>
<!-- n13614 -->
<g id="node17" class="node">
<title>n13614</title>
<polygon fill="none" stroke="#000000" points="1024,-252 880,-252 880,-216 1024,-216 1024,-252"/>
<text text-anchor="middle" x="952" y="-229.8" font-family="Courier,monospace" font-size="14.00" fill="#000000">private(4)</text>
</g>
<!-- n1361&#45;&#45;n13614 -->
<g id="edge7" class="edge">
<title>n1361&#45;&#45;n13614</title>
<path fill="none" stroke="#000000" d="M755.0265,-287.9243C795.0445,-276.9688 845.9234,-263.04 885.9463,-252.0831"/>
</g>
<!-- n136121 -->
<g id="node7" class="node">
<title>n136121</title>
<polygon fill="none" stroke="#000000" points="670,-180 526,-180 526,-144 670,-144 670,-180"/>
<text text-anchor="middle" x="598" y="-157.8" font-family="Courier,monospace" font-size="14.00" fill="#000000">mib&#45;2(1)</text>
</g>
<!-- n13612&#45;&#45;n136121 -->
<g id="edge13" class="edge">
<title>n13612&#45;&#45;n136121</title>
<path fill="none" stroke="#000000" d="M605.4766,-215.8314C603.9722,-205 602.0677,-191.2876 600.5574,-180.4133"/>
</g>
<!-- n1361211 -->
<g id="node8" class="node">
<title>n1361211</title>
<polygon fill="none" stroke="#000000" points="306,-108 162,-108 162,-72 306,-72 306,-108"/>
<text text-anchor="middle" x="234" y="-85.8" font-family="Courier,monospace" font-size="14.00" fill="#000000">system(1)</text>
</g>
<!-- n136121&#45;&#45;n1361211 -->
<g id="edge14" class="edge">
<title>n136121&#45;&#45;n1361211</title>
<path fill="none" stroke="#000000" d="M525.7645,-148.8367C468.5086,-138.2536 386.5184,-122.7663 315,-108 312.1784,-107.4174 309.3033,-106.816 306.4003,-106.2023"/>
</g>
<!-- n1361212 -->
<g id="node12" class="node">
<title>n1361212</title>
<polygon fill="none" stroke="#000000" points="468,-108 324,-108 324,-72 468,-72 468,-108"/>
<text text-anchor="middle" x="396" y="-85.8" font-family="Courier,monospace" font-size="14.00" fill="#000000">interfaces(2)</text>
</g>
<!-- n136121&#45;&#45;n1361212 -->
<g id="edge15" class="edge">
<title>n136121&#45;&#45;n1361212</title>
<path fill="none" stroke="#000000" d="M547.2876,-143.9243C516.5514,-132.9688 477.4733,-119.04 446.7333,-108.0831"/>
</g>
<!-- n1361213 -->
<g id="node13" class="node">
<title>n1361213</title>
<polygon fill="none" stroke="#000000" points="630,-108 486,-108 486,-72 630,-72 630,-108"/>
<text text-anchor="middle" x="558" y="-85.8" font-family="Courier,monospace" font-size="14.00" fill="#000000">at(3)</text>
</g>
<!-- n136121&#45;&#45;n1361213 -->
<g id="edge16" class="edge">
<title>n136121&#45;&#45;n1361213</title>
<path fill="none" stroke="#000000" d="M587.9063,-143.8314C581.8889,-133 574.2709,-119.2876 568.2296,-108.4133"/>
</g>
<!-- n1361214 -->
<g id="node14" class="node">
<title>n1361214</title>
<polygon fill="none" stroke="#000000" points="792,-108 648,-108 648,-72 792,-72 792,-108"/>
<text text-anchor="middle" x="720" y="-85.8" font-family="Courier,monospace" font-size="14.00" fill="#000000">ip(4)</text>
</g>
<!-- n136121&#45;&#45;n1361214 -->
<g id="edge17" class="edge">
<title>n136121&#45;&#45;n1361214</title>
<path fill="none" stroke="#000000" d="M628.7858,-143.8314C647.28,-132.9167 670.7316,-119.0764 689.2241,-108.1628"/>
</g>
<!-- n1361215 -->
<g id="node15" class="node">
<title>n1361215</title>
<polygon fill="none" stroke="#000000" points="954,-108 810,-108 810,-72 954,-72 954,-108"/>
<text text-anchor="middle" x="882" y="-85.8" font-family="Courier,monospace" font-size="14.00" fill="#000000">icmp(5)</text>
</g>
<!-- n136121&#45;&#45;n1361215 -->
<g id="edge18" class="edge">
<title>n136121&#45;&#45;n1361215</title>
<path fill="none" stroke="#000000" d="M669.2986,-143.9243C712.5119,-132.9688 767.4534,-119.04 810.6721,-108.0831"/>
</g>
<!-- n13612111 -->
<g id="node9" class="node">
<title>n13612111</title>
<polygon fill="none" stroke="#000000" points="144,-36 0,-36 0,0 144,0 144,-36"/>
<text text-anchor="middle" x="72" y="-13.8" font-family="Courier,monospace" font-size="14.00" fill="#000000">sysDescr(1)</text>
</g>
<!-- n1361211&#45;&#45;n13612111 -->
<g id="edge19" class="edge">
<title>n1361211&#45;&#45;n13612111</title>
<path fill="none" stroke="#000000" d="M193.1206,-71.8314C168.4688,-60.875 137.1842,-46.9708 112.5855,-36.038"/>
</g>
<!-- n13612112 -->
<g id="node10" class="node">
<title>n13612112</title>
<polygon fill="none" stroke="#000000" points="306,-36 162,-36 162,0 306,0 306,-36"/>
<text text-anchor="middle" x="234" y="-13.8" font-family="Courier,monospace" font-size="14.00" fill="#000000">sysObjectID(2)</text>
</g>
<!-- n1361211&#45;&#45;n13612112 -->
<g id="edge20" class="edge">
<title>n1361211&#45;&#45;n13612112</title>
<path fill="none" stroke="#000000" d="M234,-71.8314C234,-61 234,-47.2876 234,-36.4133"/>
</g>
<!-- n13612113 -->
<g id="node11" class="node">
<title>n13612113</title>
<polygon fill="none" stroke="#000000" points="468,-36 324,-36 324,0 468,0 468,-36"/>
<text text-anchor="middle" x="396" y="-13.8" font-family="Courier,monospace" font-size="14.00" fill="#000000">sysUpTime(3)</text>
</g>
<!-- n1361211&#45;&#45;n13612113 -->
<g id="edge21" class="edge">
<title>n1361211&#45;&#45;n13612113</title>
<path fill="none" stroke="#000000" d="M274.8794,-71.8314C299.5312,-60.875 330.8158,-46.9708 355.4145,-36.038"/>
</g>
<!-- n136141 -->
<g id="node18" class="node">
<title>n136141</title>
<polygon fill="none" stroke="#000000" points="1024,-180 880,-180 880,-144 1024,-144 1024,-180"/>
<text text-anchor="middle" x="952" y="-157.8" font-family="Courier,monospace" font-size="14.00" fill="#000000">reserved(1)</text>
</g>
<!-- n13614&#45;&#45;n136141 -->
<g id="edge8" class="edge">
<title>n13614&#45;&#45;n136141</title>
<path fill="none" stroke="#000000" d="M952,-215.8314C952,-205 952,-191.2876 952,-180.4133"/>
</g>
<!-- n136142 -->
<g id="node19" class="node">
<title>n136142</title>
<polygon fill="none" stroke="#000000" points="1267,-180 1123,-180 1123,-144 1267,-144 1267,-180"/>
<text text-anchor="middle" x="1195" y="-157.8" font-family="Courier,monospace" font-size="14.00" fill="#000000">enterprise(2)</text>
</g>
<!-- n13614&#45;&#45;n136142 -->
<g id="edge9" class="edge">
<title>n13614&#45;&#45;n136142</title>
<path fill="none" stroke="#000000" d="M1013.0055,-215.9243C1049.9803,-204.9688 1096.9901,-191.04 1133.9694,-180.0831"/>
</g>
<!-- n1361429 -->
<g id="node20" class="node">
<title>n1361429</title>
<polygon fill="none" stroke="#000000" points="1116,-108 972,-108 972,-72 1116,-72 1116,-108"/>
<text text-anchor="middle" x="1044" y="-85.8" font-family="Courier,monospace" font-size="14.00" fill="#000000">cisco(9)</text>
</g>
<!-- n136142&#45;&#45;n1361429 -->
<g id="edge10" class="edge">
<title>n136142&#45;&#45;n1361429</title>
<path fill="none" stroke="#000000" d="M1156.8963,-143.8314C1133.9185,-132.875 1104.7581,-118.9708 1081.8297,-108.038"/>
</g>
<!-- n136142311 -->
<g id="node21" class="node">
<title>n136142311</title>
<polygon fill="none" stroke="#000000" points="1278,-108 1134,-108 1134,-72 1278,-72 1278,-108"/>
<text text-anchor="middle" x="1206" y="-85.8" font-family="Courier,monospace" font-size="14.00" fill="#000000">microsof(311)</text>
</g>
<!-- n136142&#45;&#45;n136142311 -->
<g id="edge11" class="edge">
<title>n136142&#45;&#45;n136142311</title>
<path fill="none" stroke="#000000" d="M1197.7758,-143.8314C1199.4306,-133 1201.5255,-119.2876 1203.1869,-108.4133"/>
</g>
<!-- n1361422636 -->
<g id="node22" class="node">
<title>n1361422636</title>
<polygon fill="none" stroke="#000000" points="1446.4225,-108 1295.5775,-108 1295.5775,-72 1446.4225,-72 1446.4225,-108"/>
<text text-anchor="middle" x="1371" y="-85.8" font-family="Courier,monospace" font-size="14.00" fill="#000000">juniperMIB(2636)</text>
</g>
<!-- n136142&#45;&#45;n1361422636 -->
<g id="edge12" class="edge">
<title>n136142&#45;&#45;n1361422636</title>
<path fill="none" stroke="#000000" d="M1239.4122,-143.8314C1266.1943,-132.875 1300.1826,-118.9708 1326.9071,-108.038"/>
</g>
</g>
</svg>
