<?xml version="1.0" encoding="UTF-8" standalone="no"?>
<!DOCTYPE svg PUBLIC "-//W3C//DTD SVG 1.1//EN"
 "http://www.w3.org/Graphics/SVG/1.1/DTD/svg11.dtd">
<!-- Generated by graphviz version 2.40.1 (20161225.0304)
 -->
<!-- Title: MIB Pages: 1 -->
<svg width="1008pt" height="548pt"
 viewBox="0.00 0.00 1008.21 548.00" xmlns="http://www.w3.org/2000/svg" xmlns:xlink="http://www.w3.org/1999/xlink">
<g id="graph0" class="graph" transform="scale(1 1) rotate(0) translate(4 544)">
<title>MIB</title>
<polygon fill="#ffffff" stroke="transparent" points="-4,4 -4,-544 1004.2109,-544 1004.2109,4 -4,4"/>
<!-- n1 -->
<g id="node1" class="node">
<title>n1</title>
<polygon fill="none" stroke="#000000" points="468,-540 324,-540 324,-504 468,-504 468,-540"/>
<text text-anchor="middle" x="396" y="-517.8" font-family="Courier,monospace" font-size="14.00" fill="#000000">iso(1)</text>
</g>
<!-- n13 -->
<g id="node2" class="node">
<title>n13</title>
<polygon fill="none" stroke="#000000" points="513.436,-468 278.564,-468 278.564,-432 513.436,-432 513.436,-468"/>
<text text-anchor="middle" x="396" y="-445.8" font-family="Courier,monospace" font-size="14.00" fill="#000000">identified&#45;organization(3)</text>
</g>
<!-- n1&#45;&#45;n13 -->
<g id="edge1" class="edge">
<title>n1&#45;&#45;n13</title>
<path fill="none" stroke="#000000" d="M396,-503.8314C396,-493 396,-479.2876 396,-468.4133"/>
</g>
<!-- n136 -->
<g id="node3" class="node">
<title>n136</title>
<polygon fill="none" stroke="#000000" points="468,-396 324,-396 324,-360 468,-360 468,-396"/>
<text text-anchor="middle" x="396" y="-373.8" font-family="Courier,monospace" font-size="14.00" fill="#000000">dod(6)</text>
</g>
<!-- n13&#45;&#45;n136 -->
<g id="edge2" class="edge">
<title>n13&#45;&#45;n136</title>
<path fill="none" stroke="#000000" d="M396,-431.8314C396,-421 396,-407.2876 396,-396.4133"/>
</g>
<!-- n1361 -->
<g id="node4" class="node">
<title>n1361</title>
<polygon fill="none" stroke="#000000" points="468,-324 324,-324 324,-288 468,-288 468,-324"/>
<text text-anchor="middle" x="396" y="-301.8" font-family="Courier,monospace" font-size="14.00" fill="#000000">internet(1)</text>
</g>
<!-- n136&#45;&#45;n1361 -->
<g id="edge3" class="edge">
<title>n136&#45;&#45;n1361</title>
<path fill="none" stroke="#000000" d="M396,-359.8314C396,-349 396,-335.2876 396,-324.4133"/>
</g>
<!-- n13611 -->
<g id="node5" class="node">
<title>n13611</title>
<polygon fill="none" stroke="#000000" points="225,-252 81,-252 81,-216 225,-216 225,-252"/>
<text text-anchor="middle" x="153" y="-229.8" font-family="Courier,monospace" font-size="14.00" fill="#000000">directory(1)</text>
</g>
<!-- n1361&#45;&#45;n13611 -->
<g id="edge4" class="edge">
<title>n1361&#45;&#45;n13611</title>
<path fill="none" stroke="#000000" d="M334.9945,-287.9243C298.0197,-276.9688 251.0099,-263.04 214.0306,-252.0831"/>
</g>
<!-- n13612 -->
<g id="node6" class="node">
<title>n13612</title>
<polygon fill="none" stroke="#000000" points="387,-252 243,-252 243,-216 387,-216 387,-252"/>
<text text-anchor="middle" x="315" y="-229.8" font-family="Courier,monospace" font-size="14.00" fill="#000000">mgmt(2)</text>
</g>
<!-- n1361&#45;&#45;n13612 -->
<g id="edge5" class="edge">
<title>n1361&#45;&#45;n13612</title>
<path fill="none" stroke="#000000" d="M375.5603,-287.8314C363.2813,-276.9167 347.711,-263.0764 335.4332,-252.1628"/>
</g>
<!-- n13613 -->
<g id="node13" class="node">
<title>n13613</title>
<polygon fill="none" stroke="#000000" points="549,-252 405,-252 405,-216 549,-216 549,-252"/>
<text text-anchor="middle" x="477" y="-229.8" font-family="Courier,monospace" font-size="14.00" fill="#000000">experimental(3)</text>
</g>
<!-- n1361&#45;&#45;n13613 -->
<g id="edge6" class="edge">
<title>n1361&#45;&#45;n13613</title>
<path fill="none" stroke="#000000" d="M416.4397,-287.8314C428.7187,-276.9167 444.289,-263.0764 456.5668,-252.1628"/>
</g>
<!-- n13614 -->
<g id="node14" class="node">
<title>n13614</title>
<polygon fill="none" stroke="#000000" points="711,-252 567,-252 567,-216 711,-216 711,-252"/>
<text text-anchor="middle" x="639" y="-229.8" font-family="Courier,monospace" font-size="14.00" fill="#000000">private(4)</text>
</g>
<!-- n1361&#45;&#45;n13614 -->
<g id="edge7" class="edge">
<title>n1361&#45;&#45;n13614</title>
<path fill="none" stroke="#000000" d="M457.0055,-287.9243C493.9803,-276.9688 540.9901,-263.04 577.9694,-252.0831"/>
</g>
<!-- n136121 -->
<g id="node7" class="node">
<title>n136121</title>
<polygon fill="none" stroke="#000000" points="387,-180 243,-180 243,-144 387,-144 387,-180"/>
<text text-anchor="middle" x="315" y="-157.8" font-family="Courier,monospace" font-size="14.00" fill="#000000">mib&#45;2(1)</text>
</g>
<!-- n13612&#45;&#45;n136121 -->
<g id="edge13" class="edge">
<title>n13612&#45;&#45;n136121</title>
<path fill="none" stroke="#000000" d="M315,-215.8314C315,-205 315,-191.2876 315,-180.4133"/>
</g>
<!-- n1361211 -->
<g id="node8" class="node">
<title>n1361211</title>
<polygon fill="none" stroke="#000000" points="306,-108 162,-108 162,-72 306,-72 306,-108"/>
<text text-anchor="middle" x="234" y="-85.8" font-family="Courier,monospace" font-size="14.00" fill="#000000">system(1)</text>
</g>
<!-- n136121&#45;&#45;n1361211 -->
<g id="edge14" class="edge">
<title>n136121&#45;&#45;n1361211</title>
<path fill="none" stroke="#000000" d="M294.5603,-143.8314C282.2813,-132.9167 266.711,-119.0764 254.4332,-108.1628"/>
</g>
<!-- n1361212 -->
<g id="node12" class="node">
<title>n1361212</title>
<polygon fill="none" stroke="#000000" points="468,-108 324,-108 324,-72 468,-72 468,-108"/>
<text text-anchor="middle" x="396" y="-85.8" font-family="Courier,monospace" font-size="14.00" fill="#000000">interfaces(2)</text>
</g>
<!-- n136121&#45;&#45;n1361212 -->
<g id="edge15" class="edge">
<title>n136121&#45;&#45;n1361212</title>
<path fill="none" stroke="#000000" d="M335.4397,-143.8314C347.7187,-132.9167 363.289,-119.0764 375.5668,-108.1628"/>
</g>
<!-- n13612111 -->
<g id="node9" class="node">
<title>n13612111</title>
<polygon fill="none" stroke="#000000" points="144,-36 0,-36 0,0 144,0 144,-36"/>
<text text-anchor="middle" x="72" y="-13.8" font-family="Courier,monospace" font-size="14.00" fill="#000000">sysDescr(1)</text>
</g>
<!-- n1361211&#45;&#45;n13612111 -->
<g id="edge16" class="edge">
<title>n1361211&#45;&#45;n13612111</title>
<path fill="none" stroke="#000000" d="M193.1206,-71.8314C168.4688,-60.875 137.1842,-46.9708 112.5855,-36.038"/>
</g>
<!-- n13612112 -->
<g id="node10" class="node">
<title>n13612112</title>
<polygon fill="none" stroke="#000000" points="306,-36 162,-36 162,0 306,0 306,-36"/>
<text text-anchor="middle" x="234" y="-13.8" font-family="Courier,monospace" font-size="14.00" fill="#000000">sysObjectID(2)</text>
</g>
<!-- n1361211&#45;&#45;n13612112 -->
<g id="edge17" class="edge">
<title>n1361211&#45;&#45;n13612112</title>
<path fill="none" stroke="#000000" d="M234,-71.8314C234,-61 234,-47.2876 234,-36.4133"/>
</g>
<!-- n13612113 -->
<g id="node11" class="node">
<title>n13612113</title>
<polygon fill="none" stroke="#000000" points="468,-36 324,-36 324,0 468,0 468,-36"/>
<text text-anchor="middle" x="396" y="-13.8" font-family="Courier,monospace" font-size="14.00" fill="#000000">sysUpTime(3)</text>
</g>
<!-- n1361211&#45;&#45;n13612113 -->
<g id="edge18" class="edge">
<title>n1361211&#45;&#45;n13612113</title>
<path fill="none" stroke="#000000" d="M274.8794,-71.8314C299.5312,-60.875 330.8158,-46.9708 355.4145,-36.038"/>
</g>
<!-- n136141 -->
<g id="node15" class="node">
<title>n136141</title>
<polygon fill="none" stroke="#000000" points="670,-180 526,-180 526,-144 670,-144 670,-180"/>
<text text-anchor="middle" x="598" y="-157.8" font-family="Courier,monospace" font-size="14.00" fill="#000000">reserved(1)</text>
</g>
<!-- n13614&#45;&#45;n136141 -->
<g id="edge8" class="edge">
<title>n13614&#45;&#45;n136141</title>
<path fill="none" stroke="#000000" d="M628.654,-215.8314C622.4861,-205 614.6776,-191.2876 608.4853,-180.4133"/>
</g>
<!-- n136142 -->
<g id="node16" class="node">
<title>n136142</title>
<polygon fill="none" stroke="#000000" points="832,-180 688,-180 688,-144 832,-144 832,-180"/>
<text text-anchor="middle" x="760" y="-157.8" font-family="Courier,monospace" font-size="14.00" fill="#000000">enterprise(2)</text>
</g>
<!-- n13614&#45;&#45;n136142 -->
<g id="edge9" class="edge">
<title>n13614&#45;&#45;n136142</title>
<path fill="none" stroke="#000000" d="M669.5334,-215.8314C687.8761,-204.9167 711.1354,-191.0764 729.4764,-180.1628"/>
</g>
<!-- n1361429 -->
<g id="node17" class="node">
<title>n1361429</title>
<polygon fill="none" stroke="#000000" points="670,-108 526,-108 526,-72 670,-72 670,-108"/>
<text text-anchor="middle" x="598" y="-85.8" font-family="Courier,monospace" font-size="14.00" fill="#000000">cisco(9)</text>
</g>
<!-- n136142&#45;&#45;n1361429 -->
<g id="edge10" class="edge">
<title>n136142&#45;&#45;n1361429</title>
<path fill="none" stroke="#000000" d="M719.1206,-143.8314C694.4688,-132.875 663.1842,-118.9708 638.5855,-108.038"/>
</g>
<!-- n136142311 -->
<g id="node18" class="node">
<title>n136142311</title>
<polygon fill="none" stroke="#000000" points="832,-108 688,-108 688,-72 832,-72 832,-108"/>
<text text-anchor="middle" x="760" y="-85.8" font-family="Courier,monospace" font-size="14.00" fill="#000000">microsof(311)</text>
</g>
<!-- n136142&#45;&#45;n136142311 -->
<g id="edge11" class="edge">
<title>n136142&#45;&#45;n136142311</title>
<path fill="none" stroke="#000000" d="M760,-143.8314C760,-133 760,-119.2876 760,-108.4133"/>
</g>
<!-- n1361422636 -->
<g id="node19" class="node">
<title>n1361422636</title>
<polygon fill="none" stroke="#000000" points="1000.4225,-108 849.5775,-108 849.5775,-72 1000.4225,-72 1000.4225,-108"/>
<text text-anchor="middle" x="925" y="-85.8" font-family="Courier,monospace" font-size="14.00" fill="#000000">juniperMIB(2636)</text>
</g>
<!-- n136142&#45;&#45;n1361422636 -->
<g id="edge12" class="edge">
<title>n136142&#45;&#45;n1361422636</title>
<path fill="none" stroke="#000000" d="M801.6365,-143.8314C826.7447,-132.875 858.6087,-118.9708 883.6629,-108.038"/>
</g>
</g>
</svg>
