<?xml version="1.0" encoding="UTF-8" standalone="no"?>
<!DOCTYPE svg PUBLIC "-//W3C//DTD SVG 1.1//EN"
 "http://www.w3.org/Graphics/SVG/1.1/DTD/svg11.dtd">
<!-- Generated by graphviz version 2.40.1 (20161225.0304)
 -->
<!-- Title: graphname Pages: 1 -->
<svg width="231pt" height="260pt"
 viewBox="0.00 0.00 230.66 260.00" xmlns="http://www.w3.org/2000/svg" xmlns:xlink="http://www.w3.org/1999/xlink">
<g id="graph0" class="graph" transform="scale(1 1) rotate(0) translate(4 256)">
<title>graphname</title>
<polygon fill="#ffffff" stroke="transparent" points="-4,4 -4,-256 226.6595,-256 226.6595,4 -4,4"/>
<!-- a -->
<g id="node1" class="node">
<title>a</title>
<ellipse fill="none" stroke="#000000" cx="74.6595" cy="-234" rx="27" ry="18"/>
<text text-anchor="middle" x="74.6595" y="-229.8" font-family="Times,serif" font-size="14.00" fill="#000000">=</text>
</g>
<!-- b -->
<g id="node2" class="node">
<title>b</title>
<ellipse fill="none" stroke="#000000" cx="34.6595" cy="-162" rx="34.8198" ry="18"/>
<text text-anchor="middle" x="34.6595" y="-157.8" font-family="Times,serif" font-size="14.00" fill="#000000">celcius</text>
</g>
<!-- a&#45;&#45;b -->
<g id="edge1" class="edge">
<title>a&#45;&#45;b</title>
<path fill="none" stroke="#000000" d="M65.1801,-216.937C58.8962,-205.626 50.6752,-190.8282 44.3488,-179.4407"/>
</g>
<!-- c -->
<g id="node3" class="node">
<title>c</title>
<ellipse fill="none" stroke="#000000" cx="114.6595" cy="-162" rx="27" ry="18"/>
<text text-anchor="middle" x="114.6595" y="-157.8" font-family="Times,serif" font-size="14.00" fill="#000000">&#45;</text>
</g>
<!-- a&#45;&#45;c -->
<g id="edge2" class="edge">
<title>a&#45;&#45;c</title>
<path fill="none" stroke="#000000" d="M84.139,-216.937C90.5153,-205.4596 98.8861,-190.3922 105.2481,-178.9405"/>
</g>
<!-- d -->
<g id="node4" class="node">
<title>d</title>
<ellipse fill="none" stroke="#000000" cx="68.6595" cy="-90" rx="45.9028" ry="18"/>
<text text-anchor="middle" x="68.6595" y="-85.8" font-family="Times,serif" font-size="14.00" fill="#000000">fahrenheit</text>
</g>
<!-- c&#45;&#45;d -->
<g id="edge4" class="edge">
<title>c&#45;&#45;d</title>
<path fill="none" stroke="#000000" d="M103.9906,-145.3008C96.7715,-134.0013 87.2513,-119.1002 79.9124,-107.6132"/>
</g>
<!-- e -->
<g id="node5" class="node">
<title>e</title>
<ellipse fill="none" stroke="#000000" cx="159.6595" cy="-90" rx="27" ry="18"/>
<text text-anchor="middle" x="159.6595" y="-85.8" font-family="Times,serif" font-size="14.00" fill="#000000">/</text>
</g>
<!-- c&#45;&#45;e -->
<g id="edge3" class="edge">
<title>c&#45;&#45;e</title>
<path fill="none" stroke="#000000" d="M125.0965,-145.3008C132.2625,-133.8352 141.7463,-118.6612 148.9666,-107.1086"/>
</g>
<!-- f -->
<g id="node6" class="node">
<title>f</title>
<ellipse fill="none" stroke="#000000" cx="123.6595" cy="-18" rx="27" ry="18"/>
<text text-anchor="middle" x="123.6595" y="-13.8" font-family="Times,serif" font-size="14.00" fill="#000000">32</text>
</g>
<!-- e&#45;&#45;f -->
<g id="edge5" class="edge">
<title>e&#45;&#45;f</title>
<path fill="none" stroke="#000000" d="M150.9449,-72.5708C145.2848,-61.2506 137.9379,-46.5568 132.2939,-35.2687"/>
</g>
<!-- g -->
<g id="node7" class="node">
<title>g</title>
<ellipse fill="none" stroke="#000000" cx="195.6595" cy="-18" rx="27" ry="18"/>
<text text-anchor="middle" x="195.6595" y="-13.8" font-family="Times,serif" font-size="14.00" fill="#000000">1.8</text>
</g>
<!-- e&#45;&#45;g -->
<g id="edge6" class="edge">
<title>e&#45;&#45;g</title>
<path fill="none" stroke="#000000" d="M168.3741,-72.5708C174.0342,-61.2506 181.3811,-46.5568 187.0252,-35.2687"/>
</g>
</g>
</svg>
