<?xml version="1.0" encoding="UTF-8" standalone="no"?>
<!DOCTYPE svg PUBLIC "-//W3C//DTD SVG 1.1//EN"
 "http://www.w3.org/Graphics/SVG/1.1/DTD/svg11.dtd">
<!-- Generated by graphviz version 2.40.1 (20161225.0304)
 -->
<!-- Title: graphname Pages: 1 -->
<svg width="198pt" height="260pt"
 viewBox="0.00 0.00 197.95 260.00" xmlns="http://www.w3.org/2000/svg" xmlns:xlink="http://www.w3.org/1999/xlink">
<g id="graph0" class="graph" transform="scale(1 1) rotate(0) translate(4 256)">
<title>graphname</title>
<polygon fill="#ffffff" stroke="transparent" points="-4,4 -4,-256 193.9514,-256 193.9514,4 -4,4"/>
<!-- a -->
<g id="node1" class="node">
<title>a</title>
<ellipse fill="none" stroke="#000000" cx="86.9514" cy="-234" rx="27" ry="18"/>
<text text-anchor="middle" x="86.9514" y="-229.8" font-family="Times,serif" font-size="14.00" fill="#000000">=</text>
</g>
<!-- b -->
<g id="node2" class="node">
<title>b</title>
<ellipse fill="none" stroke="#000000" cx="46.9514" cy="-162" rx="34.8198" ry="18"/>
<text text-anchor="middle" x="46.9514" y="-157.8" font-family="Times,serif" font-size="14.00" fill="#000000">celcius</text>
</g>
<!-- a&#45;&#45;b -->
<g id="edge1" class="edge">
<title>a&#45;&#45;b</title>
<path fill="none" stroke="#000000" d="M77.4719,-216.937C71.188,-205.626 62.967,-190.8282 56.6406,-179.4407"/>
</g>
<!-- c -->
<g id="node3" class="node">
<title>c</title>
<ellipse fill="none" stroke="#000000" cx="126.9514" cy="-162" rx="27" ry="18"/>
<text text-anchor="middle" x="126.9514" y="-157.8" font-family="Times,serif" font-size="14.00" fill="#000000">/</text>
</g>
<!-- a&#45;&#45;c -->
<g id="edge2" class="edge">
<title>a&#45;&#45;c</title>
<path fill="none" stroke="#000000" d="M96.4308,-216.937C102.8071,-205.4596 111.1779,-190.3922 117.54,-178.9405"/>
</g>
<!-- d -->
<g id="node4" class="node">
<title>d</title>
<ellipse fill="none" stroke="#000000" cx="90.9514" cy="-90" rx="27" ry="18"/>
<text text-anchor="middle" x="90.9514" y="-85.8" font-family="Times,serif" font-size="14.00" fill="#000000">&#45;</text>
</g>
<!-- c&#45;&#45;d -->
<g id="edge3" class="edge">
<title>c&#45;&#45;d</title>
<path fill="none" stroke="#000000" d="M118.2368,-144.5708C112.5767,-133.2506 105.2298,-118.5568 99.5857,-107.2687"/>
</g>
<!-- e -->
<g id="node5" class="node">
<title>e</title>
<ellipse fill="none" stroke="#000000" cx="162.9514" cy="-90" rx="27" ry="18"/>
<text text-anchor="middle" x="162.9514" y="-85.8" font-family="Times,serif" font-size="14.00" fill="#000000">1.8</text>
</g>
<!-- c&#45;&#45;e -->
<g id="edge4" class="edge">
<title>c&#45;&#45;e</title>
<path fill="none" stroke="#000000" d="M135.666,-144.5708C141.326,-133.2506 148.673,-118.5568 154.317,-107.2687"/>
</g>
<!-- f -->
<g id="node6" class="node">
<title>f</title>
<ellipse fill="none" stroke="#000000" cx="45.9514" cy="-18" rx="45.9028" ry="18"/>
<text text-anchor="middle" x="45.9514" y="-13.8" font-family="Times,serif" font-size="14.00" fill="#000000">fahrenheit</text>
</g>
<!-- d&#45;&#45;f -->
<g id="edge5" class="edge">
<title>d&#45;&#45;f</title>
<path fill="none" stroke="#000000" d="M80.5143,-73.3008C73.4522,-62.0013 64.139,-47.1002 56.9596,-35.6132"/>
</g>
<!-- g -->
<g id="node7" class="node">
<title>g</title>
<ellipse fill="none" stroke="#000000" cx="136.9514" cy="-18" rx="27" ry="18"/>
<text text-anchor="middle" x="136.9514" y="-13.8" font-family="Times,serif" font-size="14.00" fill="#000000">32</text>
</g>
<!-- d&#45;&#45;g -->
<g id="edge6" class="edge">
<title>d&#45;&#45;g</title>
<path fill="none" stroke="#000000" d="M101.6203,-73.3008C109.0517,-61.669 118.9216,-46.2206 126.3403,-34.6087"/>
</g>
</g>
</svg>
